<svg id="Capa_1" enable-background="new 0 0 512 512" viewBox="0 0 512 512" xmlns="http://www.w3.org/2000/svg"><g><path d="m497 60.992h-45v-15c0-8.284-6.716-15-15-15h-121c-24.508 0-46.306 11.818-60 30.052-13.694-18.234-35.492-30.052-60-30.052h-121c-8.284 0-15 6.716-15 15v15h-45c-8.284 0-15 6.716-15 15v330c0 8.284 6.716 15 15 15h317v45c0 13.325 16.171 20.043 25.606 10.607l19.394-19.394 19.394 19.394c9.383 9.384 25.606 2.8 25.606-10.607v-45h75c8.284 0 15-6.716 15-15v-330c0-8.284-6.716-15-15-15zm-181 0h106v270h-106c-16.411 0-32.183 5.534-45 15.262v-240.262c0-24.813 20.187-45 45-45zm-226 0h106c24.813 0 45 20.187 45 45v240.262c-12.817-9.728-28.589-15.262-45-15.262h-106zm-60 330v-300h30v255c0 8.284 6.716 15 15 15h121c16.025 0 30.498 8.428 38.713 22.545 2.687 4.616 7.624 7.455 12.965 7.455zm234.322 0c5.341 0 10.278-2.84 12.965-7.455 8.215-14.117 22.688-22.545 38.713-22.545h16v30zm127.678 38.787-4.394-4.394c-5.857-5.858-15.355-5.858-21.213 0l-4.393 4.394v-68.787h30zm90-38.787h-60v-30h15c8.284 0 15-6.716 15-15v-255h30z"/></g></svg>