<svg viewBox="0 -102 512 512" xmlns="http://www.w3.org/2000/svg">
    <path d="m503.5 188.980469v-51.917969c0-13.652344-9.789062-25.078125-23.277344-27.175781l-56.722656-8.8125v-53.574219c0-26.191406-21.308594-47.5-47.5-47.5h-318.5c-26.191406 0-47.5 21.308594-47.5 47.5v4.988281.011719.011719 79.976562.011719.011719 55.863281c-5.816406 2.066406-10 7.609375-10 14.125v37.5c0 8.269531 6.730469 15 15 15h43.984375c3.707031 29.554688 28.972656 52.5 59.515625 52.5s55.8125-22.945312 59.515625-52.5h184.472656c3.703125 29.554688 28.972657 52.5 59.515625 52.5 30.542969 0 55.808594-22.945312 59.511719-52.5h15.484375c8.269531 0 15-6.730469 15-15v-37.5c0-5.941406-3.476562-11.089844-8.5-13.519531zm-473.5 51.019531h-15l-.011719-37.5h.011719 15zm88.5 52.5c-24.8125 0-45-20.1875-45-45s20.1875-45 45-45 45 20.1875 45 45-20.1875 45-45 45zm213.5-52.5h-25v-100h25zm0-115h-25v-65h25zm-40 0h-25v-65h25zm-25 15h25v100h-25zm155 152.5c-24.8125 0-45-20.1875-45-45s20.1875-45 45-45 45 20.1875 45 45-20.1875 45-45 45zm75-52.5h-15.484375c-3.703125-29.554688-28.972656-52.5-59.515625-52.5s-55.808594 22.945312-59.515625 52.5h-15.484375v-187.5c0-4.144531-3.355469-7.5-7.5-7.5h-80c-4.140625 0-7.5 3.355469-7.5 7.5v187.5h-73.984375c-3.707031-29.554688-28.972656-52.5-59.515625-52.5s-55.808594 22.945312-59.515625 52.5h-13.984375v-45c0-4.144531-3.359375-7.5-7.5-7.5h-12.5v-127.5h37v65h-14.5c-4.128906 0-7.5 3.359375-7.5 7.5s3.371094 7.5 7.5 7.5h182c4.140625 0 7.5-3.355469 7.5-7.5v-80c0-4.144531-3.359375-7.5-7.5-7.5-8.136719 0-194.742188 0-204.394531 0 1.28125-16.757812 15.316406-30 32.394531-30h318.5c17.078125 0 31.113281 13.242188 32.394531 30h-38.894531c-4.109375 0-7.5 3.34375-7.5 7.5v55c0 4.160156 3.394531 7.5 7.5 7.5h16.5c4.128906 0 7.5-3.359375 7.5-7.5 0-4.128906-3.359375-7.488281-7.488281-7.5h-9.011719v-40h31.5v47.5c0 3.671875 2.691406 6.84375 6.347656 7.410156l63.070313 9.800782c6.132812.953124 10.582031 6.148437 10.582031 12.351562v50.4375h-4.5c-4.144531 0-7.5 3.359375-7.5 7.5 0 4.144531 3.355469 7.5 7.5 7.5h13zm-355-180v65h-65v-65zm80 0v65h-65v-65zm0 0"/><path d="m138.609375 234.898438c-4.019531.980468-6.5 5.039062-5.53125 9.0625 0 0 0 .007812.011719.007812.269531 1.152344.410156 2.339844.410156 3.53125-.019531 8.261719-6.738281 14.980469-15 15-8.261719-.019531-14.988281-6.738281-15-15 .011719-8.261719 6.738281-14.988281 15-15 4.140625 0 7.5-3.359375 7.5-7.5 0-4.128906-3.351562-7.488281-7.480469-7.5-.007812 0-.007812 0-.019531 0-16.535156 0-30 13.371094-30 30 0 16.597656 13.4375 30 30 30 16.566406 0 30-13.402344 30-30 0-2.390625-.28125-4.769531-.839844-7.070312-.980468-4.046876-5.015625-6.5-9.050781-5.53125zm0 0"/><path d="m442.109375 234.898438c-4.019531.980468-6.5 5.039062-5.53125 9.0625 0 0 0 .007812.011719.007812.269531 1.140625.410156 2.332031.410156 3.53125-.019531 8.261719-6.75 14.980469-15 15-8.25-.019531-14.980469-6.738281-15-15 .019531-8.261719 6.75-14.988281 15-15 4.140625 0 7.5-3.359375 7.5-7.5 0-4.128906-3.351562-7.488281-7.480469-7.5-.007812 0-.007812 0-.019531 0-16.53125 0-30 13.367188-30 30 0 16.597656 13.4375 30 30 30 16.566406 0 30-13.40625 30-30 0-2.390625-.28125-4.769531-.839844-7.070312-.984375-4.058594-5.023437-6.5-9.050781-5.53125zm0 0"/>
</svg>