<svg enable-background="new 0 0 512 512" viewBox="0 0 512 512" xmlns="http://www.w3.org/2000/svg">
    <g><path d="m422 272v30h-242v-60h-90v-30h-90v300h90v-30h332v30h90v-240zm0 60v60h-332v-60zm-272-60v30h-60v-30zm-90 210h-30v-240h30zm30-30v-30h332v30zm392 30h-30v-180h30z"/><path d="m241 155h30v-30h30v-30h-30v-30h-30v30h-30v30h30z"/><path d="m256 220c60.654 0 110-49.346 110-110s-49.346-110-110-110-110 49.346-110 110 49.346 110 110 110zm0-190c44.112 0 80 35.888 80 80s-35.888 80-80 80-80-35.888-80-80 35.888-80 80-80z"/></g>
</svg>