
            <svg xmlns="http://www.w3.org/2000/svg" width="133" height="133" viewBox="0 0 133 133">
                <g id="Group_133" data-name="Group 133" transform="translate(-971 -2984)">
                  <g id="Ellipse_1" data-name="Ellipse 1" transform="translate(971 2984)" fill="none" stroke="#000" stroke-width="2">
                    <circle cx="66.5" cy="66.5" r="65.5" stroke="#000" stroke-width="3"/>
                  </g>
                  <g id="magazine" transform="translate(960.348 3024)">
                    <g id="Group_129" data-name="Group 129" transform="translate(92.345 7.174)">
                      <g id="Group_128" data-name="Group 128" transform="translate(0)">
                        <path id="Path_145" data-name="Path 145" d="M401.791,66.783h-1.937A12.559,12.559,0,0,1,400,68.576v38.859a10.7,10.7,0,0,1-2.763,7.174h4.556a1.793,1.793,0,0,0,1.794-1.793V68.576A1.793,1.793,0,0,0,401.791,66.783Z" transform="translate(-397.235 -66.783)"/>
                      </g>
                    </g>
                    <g id="Group_131" data-name="Group 131" transform="translate(55.652)">
                      <g id="Group_130" data-name="Group 130" transform="translate(0)">
                        <path id="Path_146" data-name="Path 146" d="M82.554,0a1.794,1.794,0,0,0-1.794,1.794v5.38H57.446a1.794,1.794,0,0,0-1.794,1.794V30.12c1.957-.152,4.468-.228,5.38-.228a16.216,16.216,0,0,1,14.6,9.249,12.391,12.391,0,0,1,5.129-1.947V40.83a8.893,8.893,0,0,0-4.636,2.538,1.794,1.794,0,0,1-3.011-.762,12.6,12.6,0,0,0-12.081-9.127c-.8,0-3.594.074-5.38.222V53.206A1.794,1.794,0,0,0,57.446,55h26.9a7.182,7.182,0,0,0,7.174-7.174V8.967A8.978,8.978,0,0,0,82.554,0ZM64.619,14.348h7.174a1.794,1.794,0,1,1,0,3.587H64.619a1.794,1.794,0,0,1,0-3.587ZM80.761,25.109H64.619a1.794,1.794,0,0,1,0-3.587H80.761Zm7.174,16.506a7.133,7.133,0,0,0-3.587-.963V3.894a5.39,5.39,0,0,1,3.587,5.073Z" transform="translate(-55.652 0)"/>
                      </g>
                    </g>
                  </g>
                </g>
            </svg>