<svg viewBox="0 0 512 512" xmlns="http://www.w3.org/2000/svg">
    <path d="m372.710938 377h-116.710938l-100 67.5 100 67.5h256zm0 0" fill="#4ba6a7"/>
    <path d="m139.289062 377-139.289062 135h256v-135zm0 0" fill="#59d1cc"/>
    <path d="m256 0-100 180 100 279.5 137.746094-163.644531c27.246094-32.359375 42.253906-73.503907 42.253906-115.855469 0-99.253906-80.746094-180-180-180zm0 0" fill="#e00016"/>
    <path d="m76 180c0 42.351562 15.007812 83.496094 42.253906 115.859375 0-.003906 137.746094 163.640625 137.746094 163.640625v-459.5c-99.253906 0-180 80.746094-180 180zm0 0" fill="#ff4547"/>
    <path d="m256 60-60 120 60 120c66.273438 0 120-53.726562 120-120s-53.726562-120-120-120zm0 0" fill="#fff9e8"/>
    <path d="m136 180c0 66.273438 53.726562 120 120 120v-240c-66.273438 0-120 53.726562-120 120zm0 0" fill="#fff"/>
</svg>